<mxfile host="app.diagrams.net" agent="Mozilla/5.0 (Windows NT 10.0; Win64; x64) AppleWebKit/537.36 (KHTML, like Gecko) Chrome/131.0.0.0 Safari/537.36 Edg/131.0.0.0" version="25.0.3">
  <diagram name="Page-1" id="sjYibn3fDWREO6SPm-w_">
    <mxGraphModel dx="865" dy="717" grid="1" gridSize="10" guides="1" tooltips="1" connect="1" arrows="1" fold="1" page="1" pageScale="1" pageWidth="827" pageHeight="1169" math="0" shadow="0">
      <root>
        <mxCell id="0" />
        <mxCell id="1" parent="0" />
        <mxCell id="uq_grt6JQqKApgTmWYCJ-1" value="实时监控模块" style="shape=umlLifeline;perimeter=lifelinePerimeter;whiteSpace=wrap;html=1;container=1;collapsible=0;recursiveResize=0;outlineConnect=0;rounded=1;shadow=0;comic=0;labelBackgroundColor=none;strokeWidth=1;fontFamily=Verdana;fontSize=12;align=center;fillColor=#d5e8d4;strokeColor=#82b366;" vertex="1" parent="1">
          <mxGeometry x="180" y="40" width="100" height="520" as="geometry" />
        </mxCell>
        <mxCell id="uq_grt6JQqKApgTmWYCJ-2" value="" style="html=1;points=[];perimeter=orthogonalPerimeter;rounded=0;shadow=0;comic=0;labelBackgroundColor=none;strokeWidth=1;fontFamily=Verdana;fontSize=12;align=center;fillColor=#f8cecc;strokeColor=#b85450;" vertex="1" parent="uq_grt6JQqKApgTmWYCJ-1">
          <mxGeometry x="45" y="100" width="10" height="150" as="geometry" />
        </mxCell>
        <mxCell id="uq_grt6JQqKApgTmWYCJ-3" value="" style="endArrow=classic;html=1;rounded=0;" edge="1" parent="uq_grt6JQqKApgTmWYCJ-1">
          <mxGeometry width="50" height="50" relative="1" as="geometry">
            <mxPoint x="55" y="120" as="sourcePoint" />
            <mxPoint x="55" y="160" as="targetPoint" />
            <Array as="points">
              <mxPoint x="80" y="120" />
              <mxPoint x="80" y="160" />
            </Array>
          </mxGeometry>
        </mxCell>
        <mxCell id="uq_grt6JQqKApgTmWYCJ-4" value="发送预处理后的数据" style="html=1;verticalAlign=bottom;endArrow=block;entryX=0;entryY=0;labelBackgroundColor=none;fontFamily=Verdana;fontSize=12;edgeStyle=elbowEdgeStyle;elbow=vertical;" edge="1" parent="uq_grt6JQqKApgTmWYCJ-1">
          <mxGeometry x="-0.0667" relative="1" as="geometry">
            <mxPoint x="55" y="190" as="sourcePoint" />
            <mxPoint x="205" y="190.00000000000023" as="targetPoint" />
            <mxPoint as="offset" />
          </mxGeometry>
        </mxCell>
        <mxCell id="uq_grt6JQqKApgTmWYCJ-5" value="状态数据采集与&lt;div&gt;存储模块&lt;/div&gt;" style="shape=umlLifeline;perimeter=lifelinePerimeter;whiteSpace=wrap;html=1;container=1;collapsible=0;recursiveResize=0;outlineConnect=0;rounded=1;shadow=0;comic=0;labelBackgroundColor=none;strokeWidth=1;fontFamily=Verdana;fontSize=12;align=center;fillColor=#d5e8d4;strokeColor=#82b366;" vertex="1" parent="1">
          <mxGeometry x="340" y="40" width="100" height="520" as="geometry" />
        </mxCell>
        <mxCell id="uq_grt6JQqKApgTmWYCJ-6" value="" style="html=1;points=[];perimeter=orthogonalPerimeter;rounded=0;shadow=0;comic=0;labelBackgroundColor=none;strokeWidth=1;fontFamily=Verdana;fontSize=12;align=center;fillColor=#f8cecc;strokeColor=#b85450;" vertex="1" parent="uq_grt6JQqKApgTmWYCJ-5">
          <mxGeometry x="45" y="170" width="10" height="160" as="geometry" />
        </mxCell>
        <mxCell id="uq_grt6JQqKApgTmWYCJ-7" value="" style="endArrow=classic;html=1;rounded=0;" edge="1" parent="uq_grt6JQqKApgTmWYCJ-5">
          <mxGeometry width="50" height="50" relative="1" as="geometry">
            <mxPoint x="60" y="200" as="sourcePoint" />
            <mxPoint x="55" y="240" as="targetPoint" />
            <Array as="points">
              <mxPoint x="85" y="200" />
              <mxPoint x="85" y="240" />
            </Array>
          </mxGeometry>
        </mxCell>
        <mxCell id="uq_grt6JQqKApgTmWYCJ-8" value="用户查询与分析&lt;div&gt;模块&lt;/div&gt;" style="shape=umlLifeline;perimeter=lifelinePerimeter;whiteSpace=wrap;html=1;container=1;collapsible=0;recursiveResize=0;outlineConnect=0;rounded=1;shadow=0;comic=0;labelBackgroundColor=none;strokeWidth=1;fontFamily=Verdana;fontSize=12;align=center;fillColor=#d5e8d4;strokeColor=#82b366;" vertex="1" parent="1">
          <mxGeometry x="480" y="40" width="100" height="520" as="geometry" />
        </mxCell>
        <mxCell id="uq_grt6JQqKApgTmWYCJ-9" value="异常告警与恢复&lt;div&gt;模块&lt;/div&gt;" style="shape=umlLifeline;perimeter=lifelinePerimeter;whiteSpace=wrap;html=1;container=1;collapsible=0;recursiveResize=0;outlineConnect=0;rounded=1;shadow=0;comic=0;labelBackgroundColor=none;strokeWidth=1;fontFamily=Verdana;fontSize=12;align=center;fillColor=#d5e8d4;strokeColor=#82b366;" vertex="1" parent="1">
          <mxGeometry x="620" y="40" width="100" height="520" as="geometry" />
        </mxCell>
        <mxCell id="uq_grt6JQqKApgTmWYCJ-10" value="&lt;font style=&quot;font-size: 13px;&quot;&gt;用户&lt;/font&gt;" style="shape=umlLifeline;perimeter=lifelinePerimeter;whiteSpace=wrap;html=1;container=1;collapsible=0;recursiveResize=0;outlineConnect=0;rounded=1;shadow=0;comic=0;labelBackgroundColor=none;strokeWidth=1;fontFamily=Verdana;fontSize=12;align=center;fillColor=#ffe6cc;strokeColor=#d79b00;" vertex="1" parent="1">
          <mxGeometry x="40" y="40" width="100" height="520" as="geometry" />
        </mxCell>
        <mxCell id="uq_grt6JQqKApgTmWYCJ-11" value="" style="html=1;points=[];perimeter=orthogonalPerimeter;rounded=0;shadow=0;comic=0;labelBackgroundColor=none;strokeWidth=1;fontFamily=Verdana;fontSize=12;align=center;fillColor=#f8cecc;strokeColor=#b85450;" vertex="1" parent="uq_grt6JQqKApgTmWYCJ-10">
          <mxGeometry x="45" y="100" width="10" height="380" as="geometry" />
        </mxCell>
        <mxCell id="uq_grt6JQqKApgTmWYCJ-12" value="发起数据处理请求" style="html=1;verticalAlign=bottom;endArrow=block;entryX=0;entryY=0;labelBackgroundColor=none;fontFamily=Verdana;fontSize=12;edgeStyle=elbowEdgeStyle;elbow=vertical;" edge="1" parent="uq_grt6JQqKApgTmWYCJ-10">
          <mxGeometry relative="1" as="geometry">
            <mxPoint x="55" y="120" as="sourcePoint" />
            <mxPoint x="185" y="120.00000000000011" as="targetPoint" />
            <mxPoint as="offset" />
          </mxGeometry>
        </mxCell>
        <mxCell id="uq_grt6JQqKApgTmWYCJ-13" value="" style="html=1;points=[];perimeter=orthogonalPerimeter;rounded=0;shadow=0;comic=0;labelBackgroundColor=none;strokeWidth=1;fontFamily=Verdana;fontSize=12;align=center;fillColor=#f8cecc;strokeColor=#b85450;" vertex="1" parent="1">
          <mxGeometry x="525" y="270" width="10" height="160" as="geometry" />
        </mxCell>
        <mxCell id="uq_grt6JQqKApgTmWYCJ-14" value="存储清洗后的数据" style="html=1;verticalAlign=bottom;endArrow=block;labelBackgroundColor=none;fontFamily=Verdana;fontSize=12;edgeStyle=elbowEdgeStyle;elbow=vertical;" edge="1" parent="1">
          <mxGeometry relative="1" as="geometry">
            <mxPoint x="395" y="320" as="sourcePoint" />
            <Array as="points">
              <mxPoint x="440" y="320" />
              <mxPoint x="400" y="160" />
            </Array>
            <mxPoint x="525" y="320" as="targetPoint" />
            <mxPoint as="offset" />
          </mxGeometry>
        </mxCell>
        <mxCell id="uq_grt6JQqKApgTmWYCJ-15" value="" style="html=1;points=[];perimeter=orthogonalPerimeter;rounded=0;shadow=0;comic=0;labelBackgroundColor=none;strokeWidth=1;fontFamily=Verdana;fontSize=12;align=center;fillColor=#f8cecc;strokeColor=#b85450;" vertex="1" parent="1">
          <mxGeometry x="665" y="340" width="10" height="180" as="geometry" />
        </mxCell>
        <mxCell id="uq_grt6JQqKApgTmWYCJ-16" value="生成的图表和报告" style="html=1;verticalAlign=bottom;endArrow=open;dashed=1;endSize=8;labelBackgroundColor=none;fontFamily=Verdana;fontSize=12;edgeStyle=elbowEdgeStyle;elbow=vertical;dashPattern=12 12;" edge="1" parent="1" source="uq_grt6JQqKApgTmWYCJ-9">
          <mxGeometry x="-0.0009" relative="1" as="geometry">
            <mxPoint x="95" y="490" as="targetPoint" />
            <Array as="points">
              <mxPoint x="170" y="490" />
              <mxPoint x="200" y="490" />
            </Array>
            <mxPoint x="225" y="490" as="sourcePoint" />
            <mxPoint as="offset" />
          </mxGeometry>
        </mxCell>
        <mxCell id="uq_grt6JQqKApgTmWYCJ-17" value="数据导入与融合" style="text;html=1;align=center;verticalAlign=middle;resizable=0;points=[];autosize=1;strokeColor=none;fillColor=none;" vertex="1" parent="1">
          <mxGeometry x="250" y="160" width="110" height="30" as="geometry" />
        </mxCell>
        <mxCell id="uq_grt6JQqKApgTmWYCJ-18" value="数据清洗" style="text;html=1;align=center;verticalAlign=middle;resizable=0;points=[];autosize=1;strokeColor=none;fillColor=none;" vertex="1" parent="1">
          <mxGeometry x="420" y="240" width="70" height="30" as="geometry" />
        </mxCell>
        <mxCell id="uq_grt6JQqKApgTmWYCJ-19" value="" style="endArrow=classic;html=1;rounded=0;" edge="1" parent="1">
          <mxGeometry width="50" height="50" relative="1" as="geometry">
            <mxPoint x="540" y="330" as="sourcePoint" />
            <mxPoint x="535" y="370" as="targetPoint" />
            <Array as="points">
              <mxPoint x="565" y="330" />
              <mxPoint x="565" y="370" />
            </Array>
          </mxGeometry>
        </mxCell>
        <mxCell id="uq_grt6JQqKApgTmWYCJ-20" value="数据存储" style="text;html=1;align=center;verticalAlign=middle;resizable=0;points=[];autosize=1;strokeColor=none;fillColor=none;" vertex="1" parent="1">
          <mxGeometry x="560" y="330" width="70" height="30" as="geometry" />
        </mxCell>
        <mxCell id="uq_grt6JQqKApgTmWYCJ-21" value="生成报告请求" style="html=1;verticalAlign=bottom;endArrow=block;entryX=0;entryY=0;labelBackgroundColor=none;fontFamily=Verdana;fontSize=12;edgeStyle=elbowEdgeStyle;elbow=vertical;" edge="1" parent="1">
          <mxGeometry relative="1" as="geometry">
            <mxPoint x="535" y="410" as="sourcePoint" />
            <mxPoint x="665" y="410" as="targetPoint" />
            <mxPoint as="offset" />
          </mxGeometry>
        </mxCell>
        <mxCell id="uq_grt6JQqKApgTmWYCJ-22" value="" style="endArrow=classic;html=1;rounded=0;" edge="1" parent="1">
          <mxGeometry width="50" height="50" relative="1" as="geometry">
            <mxPoint x="680" y="420" as="sourcePoint" />
            <mxPoint x="675" y="460" as="targetPoint" />
            <Array as="points">
              <mxPoint x="705" y="420" />
              <mxPoint x="705" y="460" />
            </Array>
          </mxGeometry>
        </mxCell>
        <mxCell id="uq_grt6JQqKApgTmWYCJ-23" value="报告生成" style="text;html=1;align=center;verticalAlign=middle;resizable=0;points=[];autosize=1;strokeColor=none;fillColor=none;" vertex="1" parent="1">
          <mxGeometry x="700" y="420" width="70" height="30" as="geometry" />
        </mxCell>
      </root>
    </mxGraphModel>
  </diagram>
</mxfile>
